<?xml version="1.0" encoding="UTF-8" standalone="no"?>
<!-- Created with Inkscape (http://www.inkscape.org/) -->

<svg
   xmlns:dc="http://purl.org/dc/elements/1.1/"
   xmlns:cc="http://creativecommons.org/ns#"
   xmlns:rdf="http://www.w3.org/1999/02/22-rdf-syntax-ns#"
   xmlns:svg="http://www.w3.org/2000/svg"
   xmlns="http://www.w3.org/2000/svg"
   xmlns:sodipodi="http://sodipodi.sourceforge.net/DTD/sodipodi-0.dtd"
   xmlns:inkscape="http://www.inkscape.org/namespaces/inkscape"
   width="64"
   height="64"
   id="svg2"
   version="1.1"
   inkscape:version="0.48.1 r9760"
   sodipodi:docname="icon.svg"
   inkscape:export-filename="/home/elijah/dev/giip/hackaroo/img/icon.png"
   inkscape:export-xdpi="22.43"
   inkscape:export-ydpi="22.43">
  <defs
     id="defs4" />
  <sodipodi:namedview
     id="base"
     pagecolor="#ffffff"
     bordercolor="#666666"
     borderopacity="1.0"
     inkscape:pageopacity="0.0"
     inkscape:pageshadow="2"
     inkscape:zoom="2.8"
     inkscape:cx="19.036626"
     inkscape:cy="-10.966994"
     inkscape:document-units="px"
     inkscape:current-layer="g3551"
     showgrid="false"
     inkscape:window-width="808"
     inkscape:window-height="636"
     inkscape:window-x="726"
     inkscape:window-y="303"
     inkscape:window-maximized="0" />
  <metadata
     id="metadata7">
    <rdf:RDF>
      <cc:Work
         rdf:about="">
        <dc:format>image/svg+xml</dc:format>
        <dc:type
           rdf:resource="http://purl.org/dc/dcmitype/StillImage" />
        <dc:title></dc:title>
      </cc:Work>
    </rdf:RDF>
  </metadata>
  <g
     inkscape:label="Layer 1"
     inkscape:groupmode="layer"
     id="layer1"
     transform="translate(0,-988.36218)">
    <path
       style="fill:#000000"
       d=""
       id="path3503"
       inkscape:connector-curvature="0" />
    <path
       style="fill:#000000"
       d=""
       id="path3501"
       inkscape:connector-curvature="0" />
    <path
       style="fill:#000000"
       d=""
       id="path3499"
       inkscape:connector-curvature="0" />
    <g
       id="g3551"
       transform="matrix(0.14788559,0,0,0.14788559,-26.061446,948.51723)">
      <rect
         style="opacity:0.27058823999999998;fill:#0000ff;fill-opacity:1;stroke:none"
         id="rect3576"
         width="63.92857"
         height="63.92857"
         x="0"
         y="0.07142847"
         transform="matrix(6.761984,0,0,6.761984,176.22708,269.43092)" />
      <path
         style="fill:#501616"
         d="m 252.13843,699.50511 c -0.43135,-1.12407 0.20732,-2.29971 4.07797,-7.50639 0.87249,-1.17364 2.91019,-4.06815 4.52821,-6.4322 4.52034,-6.60458 5.45574,-7.50947 10.1455,-9.81453 2.39937,-1.17931 4.89785,-2.62358 5.55221,-3.20952 0.65437,-0.58591 2.26056,-1.32079 3.56929,-1.63307 1.30874,-0.31227 2.8403,-0.9313 3.40347,-1.37563 1.40701,-1.11011 8.85862,-4.5256 9.87355,-4.5256 2.46075,0 31.53729,-15.36537 31.53729,-16.66577 0,-0.31724 1.36745,-2.31886 3.0388,-4.448 3.13753,-3.99697 5.56417,-8.67199 7.3616,-14.18244 0.56919,-1.74499 1.29116,-3.5346 1.60435,-3.9769 0.84037,-1.18683 5.44507,-15.2825 5.44507,-16.66818 0,-0.6538 0.35271,-1.80851 0.78381,-2.56602 0.69685,-1.22448 1.28308,-3.82384 3.97761,-17.63734 0.81834,-4.19524 0.8796,-24.09418 0.083,-26.9679 -0.51856,-1.87079 -1.0187,-2.03524 -8.84412,-2.90802 -4.56197,-0.5088 -9.90066,-1.29635 -11.86377,-1.7501 -6.67232,-1.54226 -7.38538,-1.32428 -6.80545,2.0803 0.27867,1.63593 0.83492,6.18676 1.23613,10.11297 2.77128,27.12003 4.1583,29.55118 14.01457,24.56436 5.52082,-2.7933 7.00236,-2.27103 6.29309,2.21845 -0.87966,5.56817 -5.4915,8.47697 -13.4789,8.50146 -3.81702,0.0118 -10.77752,-3.02726 -10.77752,-4.70547 0,-0.3766 -1.23656,-2.16477 -2.74792,-3.97376 -1.51135,-1.80895 -2.98804,-4.60893 -3.28153,-6.22212 -0.62946,-3.45992 -4.13322,-10.70349 -8.13287,-16.81364 -3.9437,-6.02467 -4.44679,-6.44512 -9.09985,-7.60495 -5.67809,-1.41534 -9.41847,-2.89348 -16.77811,-6.63048 -3.48174,-1.76792 -6.75617,-3.21439 -7.27654,-3.21439 -0.52036,0 -1.70626,-0.98155 -2.63532,-2.18123 -5.23173,-6.75559 -6.36318,-8.47223 -6.36318,-9.65424 0,-0.71835 -1.98508,-3.25699 -4.41126,-5.64145 -5.24066,-5.15046 -12.89254,-15.60743 -16.16617,-22.09245 -2.50255,-4.95751 -4.0276,-6.11292 -6.39579,-4.84551 -1.829,0.97886 -7.67752,1.0416 -8.26643,0.0888 -0.23851,-0.38593 -2.05906,-0.94541 -4.04565,-1.24331 -1.98661,-0.29791 -5.11414,-1.2236 -6.95003,-2.05705 -1.83592,-0.83346 -4.1465,-1.5232 -5.13468,-1.53281 -0.98814,-0.0103 -3.77711,-1.13512 -6.19768,-2.5012 -3.77374,-2.12977 -4.68176,-2.35586 -6.37068,-1.58634 -3.96922,1.8085 -7.12578,1.14202 -9.83674,-2.07696 -2.43958,-2.89678 -2.49296,-3.12629 -2.04498,-8.79371 0.25302,-3.2006 0.6664,-6.15323 0.91867,-6.56142 1.10412,-1.78649 10.3685,-5.63069 14.53621,-6.03172 4.55766,-0.43854 8.06914,-2.10305 12.33555,-5.84733 6.06133,-5.31954 18.01108,-7.89572 23.48784,-5.06358 2.47509,1.27994 4.26766,0.837 6.24242,-1.54244 1.92504,-2.31953 14.7422,-7.87562 21.4721,-9.30792 3.93135,-0.8367 13.20329,-0.18419 13.92267,0.97982 1.45889,2.36055 -18.14339,18.16254 -22.55919,18.18563 -7.01842,0.0367 -7.23754,2.25927 -0.74186,7.5243 10.11115,8.19559 13.10379,9.44924 22.46573,9.41122 14.20782,-0.0577 16.79222,-1.59351 38.51604,-22.88918 18.96062,-18.58689 23.65428,-22.28892 35.24911,-27.80178 4.36244,-2.07418 8.91886,-4.27683 10.12531,-4.8948 6.73283,-3.44859 33.97237,-2.81437 44.60367,1.03848 18.72465,6.786 34.06449,18.53879 46.649,35.74072 9.50557,12.99328 59.45225,64.48302 67.54842,69.63526 1.29796,0.826 3.97492,2.99577 5.9488,4.8217 1.97387,1.82594 4.519,3.81735 5.65583,4.42536 17.46022,9.33819 22.79385,11.67377 27.91002,12.22166 2.9377,0.3146 5.53584,0.88682 5.77365,1.2716 0.59402,0.96114 5.6825,0.8854 6.28756,-0.0936 0.26961,-0.43624 2.0479,-0.79318 3.95177,-0.79318 4.92046,0 14.89375,-5.44668 17.48264,-9.54774 1.04495,-1.65533 2.2809,-3.24513 2.74655,-3.53293 0.46563,-0.28777 2.23385,-3.28234 3.92938,-6.65456 5.64627,-11.22986 8.40502,-10.55719 7.74656,1.88884 -0.43,8.12783 -1.93741,12.31032 -6.81765,18.91646 -5.60285,7.58432 -20.70859,16.80565 -29.83243,18.21129 -11.39988,1.75629 -31.79835,0.24207 -35.69281,-2.64959 -0.43624,-0.3239 -2.3975,-0.85388 -4.35832,-1.17771 -1.96084,-0.32384 -4.81095,-1.25651 -6.33364,-2.07261 -1.52268,-0.81612 -3.07677,-1.48383 -3.45354,-1.48383 -0.37678,0 -1.98825,-0.58395 -3.58103,-1.29767 -9.97912,-4.47148 -13.34245,-6.03133 -14.397,-6.67708 -0.65437,-0.40069 -3.33134,-1.80958 -5.94882,-3.13088 -2.61745,-1.3213 -6.54366,-3.64077 -8.7249,-5.15436 -2.18122,-1.51361 -5.38907,-3.739 -7.12853,-4.94531 -1.73949,-1.20633 -4.01267,-2.64032 -5.05156,-3.18663 -1.03886,-0.54633 -4.30349,-3.13404 -7.25473,-5.75051 -2.95122,-2.61646 -5.63827,-4.7572 -5.97121,-4.7572 -0.33292,0 -2.12987,-1.24926 -3.99317,-2.77612 -4.26233,-3.49264 -5.28501,-3.47435 -8.03788,0.14374 -2.0187,2.65316 -5.60111,5.65281 -17.8055,14.90895 -2.28801,1.73531 -7.9191,5.05657 -12.51358,7.38062 -4.59444,2.32407 -9.43575,5.05101 -10.75847,6.05989 -1.32271,1.00888 -3.57616,2.09157 -5.0077,2.40598 -1.43153,0.31442 -5.55945,2.05701 -9.17316,3.87241 -3.6137,1.81541 -7.69106,3.7713 -9.06082,4.34639 -4.86347,2.04201 -10.07243,11.17135 -15.54544,27.24524 -1.13898,3.34514 -2.07087,6.65155 -2.07087,7.34764 0,0.69606 -0.34838,1.88537 -0.77419,2.64287 -0.85223,1.51608 -2.67859,10.35485 -4.3066,20.84173 -1.13307,7.2988 -2.42985,10.49142 -5.35339,13.17959 -2.21291,2.03477 -17.10945,11.3771 -18.14101,11.3771 -3.47872,0 -31.23416,14.60695 -40.1411,21.12519 -3.0603,2.23957 -6.78671,4.6929 -8.28091,5.45185 -1.49421,0.75895 -4.32292,2.5081 -6.28602,3.887 -8.98434,6.31069 -10.9765,6.93202 -14.93748,4.65873 -2.32505,-1.33441 -2.49834,-1.3092 -8.19431,1.19171 -6.38043,2.80143 -9.19419,3.1867 -9.89702,1.35514 z"
         id="path3553"
         inkscape:connector-curvature="0" />
    </g>
  </g>
</svg>
